<?xml version="1.0" standalone="no"?>
<!DOCTYPE svg PUBLIC "-//W3C//DTD SVG 20010904//EN"
 "http://www.w3.org/TR/2001/REC-SVG-20010904/DTD/svg10.dtd">
<svg version="1.0" xmlns="http://www.w3.org/2000/svg"
 width="5000.000000pt" height="5000.000000pt" viewBox="0 0 5000.000000 5000.000000"
 preserveAspectRatio="xMidYMid meet">

<g transform="translate(0.000000,5000.000000) scale(0.100000,-0.100000)"
fill="#000000" stroke="none">
<path d="M16794 40239 c-123 -16 -231 -98 -287 -217 -27 -59 -31 -77 -31 -152
1 -155 75 -275 212 -342 61 -30 74 -33 162 -33 82 0 103 4 152 27 190 89 276
310 192 496 -72 160 -225 245 -400 221z m179 -97 c110 -49 183 -171 174 -292
-11 -161 -137 -280 -297 -280 -157 0 -285 118 -298 276 -18 226 213 388 421
296z"/>
<path d="M28935 38304 c-521 -88 -876 -423 -930 -876 -4 -32 -8 -58 -9 -58 0
0 -23 7 -50 15 -103 31 -227 11 -351 -58 -73 -41 -133 -123 -166 -225 -27 -84
-37 -256 -19 -344 35 -178 145 -295 299 -316 115 -16 275 20 408 92 l63 34 40
-77 40 -76 -26 -130 c-42 -214 -105 -487 -121 -525 -17 -43 -152 -156 -238
-201 l-60 -32 -97 37 c-134 50 -208 66 -309 66 -100 0 -128 -8 -282 -86 -182
-91 -371 -224 -566 -399 -19 -16 -83 -86 -143 -155 -231 -262 -396 -558 -497
-887 -46 -154 -60 -215 -106 -488 -20 -115 -38 -218 -41 -228 -4 -12 -1 -18 8
-16 7 1 79 1 159 0 l146 -1 -5 -292 c-5 -308 8 -598 33 -753 15 -92 46 -197
66 -221 9 -12 -520 -14 -3292 -16 l-3304 -3 -75 -23 c-186 -57 -361 -173 -477
-317 -77 -95 -154 -247 -185 -365 l-23 -85 -2 -2567 -3 -2567 107 -73 c191
-130 193 -133 349 -458 235 -492 379 -814 475 -1065 l34 -90 3 3073 2 3072
2449 0 2450 0 15 -22 c10 -14 16 -44 16 -79 0 -77 33 -200 77 -289 48 -96 172
-224 254 -264 201 -97 415 -67 579 81 67 61 107 114 151 203 36 73 69 206 69
281 0 41 5 60 18 72 17 16 207 17 2525 17 l2507 0 -2 -9132 -3 -9133 -5550 0
-5550 0 -3 4837 -2 4838 -98 -64 c-132 -87 -385 -231 -651 -371 l-221 -117 3
-5436 c2 -4988 4 -5442 19 -5502 47 -191 143 -356 279 -484 91 -86 183 -144
303 -193 l81 -33 -672 0 -673 0 0 90 0 90 -30 0 -30 0 0 210 c0 187 20 625 36
768 l5 52 65 0 64 0 1 323 c0 177 19 2084 43 4237 23 2153 41 3917 40 3919 -2
2 -402 34 -891 73 -488 38 -894 71 -902 74 -11 4 -13 86 -8 502 9 859 51 1482
227 3366 28 291 50 551 50 577 0 26 56 332 126 680 69 349 181 915 249 1259
122 616 124 626 110 677 -27 103 -55 545 -55 891 0 146 2 163 18 168 48 14
110 55 134 90 28 39 97 243 224 663 92 303 150 534 170 686 25 176 23 249 -5
308 -28 58 -156 178 -226 212 -27 13 -138 49 -245 80 -263 76 -269 79 -316
193 -33 81 -101 115 -140 71 -38 -43 -97 -79 -129 -79 -47 0 -75 28 -125 120
-24 45 -60 95 -80 111 -51 43 -132 79 -217 96 -63 13 -77 13 -88 2 -20 -21
-105 -194 -111 -229 -4 -17 -10 -33 -14 -35 -10 -6 -53 45 -83 96 -45 79 -85
40 -155 -148 -31 -86 -36 -110 -36 -193 -1 -89 1 -100 32 -163 l33 -67 -15
-68 c-41 -182 -84 -517 -121 -942 -14 -162 -32 -359 -40 -437 -21 -204 -20
-304 5 -353 45 -88 132 -151 275 -200 l50 -17 7 -79 c3 -43 9 -221 13 -394 8
-353 6 -376 -50 -430 l-35 -34 0 27 c0 15 -5 27 -12 26 -7 0 -53 -15 -103 -33
l-90 -33 -6 -44 c-4 -24 -7 -132 -8 -239 -1 -107 -3 -206 -5 -220 -3 -14 -7
-180 -10 -370 -4 -190 -8 -392 -11 -450 -3 -58 -7 -229 -10 -380 -3 -151 -7
-347 -10 -435 -3 -88 -7 -259 -10 -380 -16 -667 -45 -1876 -49 -2045 -3 -107
-8 -314 -11 -460 -4 -146 -8 -305 -10 -355 -2 -49 -12 -412 -21 -805 -9 -393
-20 -718 -23 -722 -3 -3 -280 15 -616 41 -335 26 -612 46 -614 44 -5 -4 -800
-8695 -801 -8745 l0 -28 85 0 85 0 -2 -227 -3 -227 -121 -40 -122 -40 -89 27
c-111 33 -139 34 -149 5 -5 -16 -1 -27 16 -40 12 -10 28 -18 35 -18 8 0 26 -5
42 -11 27 -10 26 -11 -47 -41 l-75 -30 -77 22 c-64 19 -81 20 -93 10 -24 -20
-14 -53 19 -69 l30 -14 -85 -39 -84 -39 -76 22 c-86 25 -109 21 -109 -16 0
-21 8 -29 41 -43 l42 -18 -72 -43 c-39 -23 -101 -64 -137 -92 l-65 -49 -80 0
-79 0 0 -100 0 -100 -4638 0 c-3594 0 -4641 -3 -4650 -12 -18 -18 -14 -46 7
-58 21 -11 43787 -15 43828 -4 27 7 39 40 23 59 -11 13 -281 15 -2021 17
l-2008 3 735 638 735 638 -19 24 c-37 47 -81 95 -88 95 -3 0 -26 -18 -51 -40
-44 -39 -48 -40 -118 -40 -180 0 -516 -90 -900 -241 l-149 -59 -353 211 c-194
117 -353 215 -353 220 0 5 16 37 35 72 l35 63 -263 185 c-908 637 -1749 1162
-2369 1478 l-247 126 -92 115 c-141 176 -237 287 -319 372 -97 99 -137 112
-325 111 -188 -1 -422 -40 -770 -128 -93 -23 -171 -42 -172 -41 -5 4 30 292
35 298 13 14 394 21 464 9 252 -44 533 163 589 434 20 100 16 231 -11 293 -24
56 -75 108 -115 118 -14 3 -25 9 -25 11 0 3 30 120 67 260 38 147 62 257 57
262 -14 13 -527 112 -534 103 -4 -4 -38 -143 -76 -309 -40 -178 -73 -303 -80
-303 -7 0 -13 36 -16 103 -9 163 -45 223 -123 203 -35 -9 -52 -40 -89 -165
-50 -167 -64 -181 -182 -181 l-64 0 0 50 0 50 -1049 0 -1050 0 -20 26 c-69 87
-103 350 -131 994 -6 135 -15 298 -20 364 -7 85 -7 122 1 132 8 10 7 20 -4 41
-9 15 -23 71 -32 123 -17 96 -43 170 -72 202 -21 24 -64 23 -96 -2 l-25 -20
-59 88 c-92 134 -113 175 -113 217 0 33 47 264 55 273 2 2 40 -8 85 -22 150
-48 176 -38 320 111 149 154 251 324 576 958 l251 490 61 7 c127 14 239 54
282 100 31 34 27 94 -12 153 -73 111 -344 284 -663 426 -302 133 -588 234
-779 274 -66 14 -145 33 -175 41 -76 23 -192 16 -256 -15 -70 -34 -161 -131
-217 -231 -28 -50 -67 -144 -95 -230 -26 -80 -93 -260 -149 -400 -109 -273
-174 -455 -174 -487 0 -42 31 -120 60 -150 28 -28 29 -33 18 -60 -6 -15 -18
-35 -25 -43 -6 -9 -39 -105 -72 -215 -67 -225 -158 -500 -194 -589 l-24 -59
-119 -2 c-101 -1 -131 -5 -199 -29 -464 -160 -987 -750 -1332 -1501 -271 -592
-434 -1273 -461 -1930 -4 -99 -9 3776 -12 8610 l-5 8790 -22 80 c-30 105 -109
263 -176 350 -136 177 -365 312 -590 347 -42 6 -77 15 -77 20 0 7 194 521 786
2082 79 209 144 383 144 388 0 4 -340 9 -757 10 l-756 3 -75 130 c-215 376
-428 645 -564 716 -89 47 -253 25 -463 -60 l-120 -49 -22 23 c-35 39 -42 220
-17 411 l6 41 85 11 c230 31 423 209 596 550 61 119 69 130 129 174 138 101
268 267 322 409 85 226 71 488 -39 754 -135 326 -426 541 -824 609 -116 20
-381 20 -496 0z m1006 -1074 c9 -85 22 -187 28 -227 17 -110 15 -126 -40 -267
-128 -326 -260 -557 -400 -697 -183 -183 -368 -205 -629 -75 -120 60 -173 100
-269 203 -82 88 -113 102 -119 55 -5 -31 33 -86 105 -157 102 -100 257 -189
399 -231 l61 -18 -1 -226 c-1 -196 1 -229 17 -259 9 -19 17 -37 17 -41 0 -13
-254 -109 -332 -124 -181 -37 -236 -20 -664 206 l-211 112 61 39 c34 22 91 65
128 96 55 45 72 67 89 111 29 77 72 262 133 568 48 245 54 264 77 275 35 18
34 47 -1 116 -85 169 -123 375 -83 450 10 19 30 43 44 54 22 16 32 17 65 8 22
-6 59 -27 81 -46 56 -48 76 -45 119 15 20 28 46 52 57 55 63 14 929 132 1167
158 89 10 82 21 101 -153z m1879 -2729 c0 -8 -850 -2254 -883 -2333 l-16 -38
-1425 0 c-1170 0 -1426 2 -1426 13 0 9 763 2137 845 2355 3 9 304 12 1455 12
837 0 1450 -4 1450 -9z m-4730 -1158 c0 -21 -4 -85 -10 -143 -17 -191 -29
-514 -21 -593 13 -126 3 -121 294 -125 133 -2 356 1 496 7 140 7 255 10 257 8
5 -5 -105 -310 -116 -320 -20 -21 -1186 -72 -1504 -65 l-208 3 -24 28 c-61 71
-84 253 -91 718 -3 202 -2 401 2 443 l7 76 459 0 459 0 0 -37z m-11005 -3874
c122 -63 241 -93 480 -124 153 -19 549 -52 728 -61 75 -4 137 -10 137 -14 0
-4 -23 -142 -51 -306 -65 -384 -63 -368 -55 -398 8 -32 40 -41 96 -26 23 6 53
9 66 6 20 -5 24 -13 24 -44 0 -91 -88 -200 -205 -253 -71 -32 -66 -22 -110
-199 -62 -247 -125 -413 -176 -466 -38 -39 -37 -77 2 -82 20 -2 34 6 59 34 33
38 90 147 90 173 0 8 3 12 6 9 3 -4 10 -152 15 -330 12 -434 27 -608 64 -734
6 -17 -16 -38 -137 -131 -287 -222 -495 -343 -659 -384 -230 -59 -376 42 -439
303 -11 46 -20 92 -19 103 0 12 20 35 54 59 68 48 84 82 97 204 10 99 5 416
-12 632 -4 63 -7 116 -6 117 1 2 18 -2 37 -8 83 -25 282 -67 294 -63 19 8 27
32 16 53 -6 11 -43 24 -113 40 -258 58 -461 131 -521 189 -41 38 -67 94 -67
142 0 103 87 829 130 1080 49 292 93 521 99 518 3 -2 38 -19 76 -39z m-75
-9709 l0 -420 125 -776 c69 -427 124 -778 122 -780 -2 -2 -18 -5 -37 -6 l-34
-3 -122 755 -123 755 0 448 -1 447 35 0 35 0 0 -420z m19315 -447 c341 -256
658 -411 923 -454 37 -5 67 -11 68 -12 2 -1 -45 -96 -103 -211 -85 -170 -108
-207 -117 -195 -57 76 -114 123 -185 149 -40 16 -56 18 -72 9 -38 -20 -20 -51
52 -85 42 -21 81 -50 111 -83 25 -28 53 -51 62 -51 13 0 -8 -49 -84 -200 -84
-164 -110 -207 -147 -240 -43 -38 -120 -70 -166 -70 -37 0 -281 104 -492 210
-232 116 -385 205 -487 280 l-66 50 34 80 35 79 -38 78 c-34 71 -38 85 -38
163 0 72 4 93 26 135 35 70 58 71 105 5 34 -47 39 -51 73 -48 l36 3 126 250
c70 138 134 263 143 278 l16 29 52 -45 c29 -24 89 -71 133 -104z m-86 -1366
c76 -67 151 -100 246 -104 98 -5 106 -8 98 -29 -11 -28 -102 -64 -163 -64
-122 1 -250 108 -250 209 0 17 5 31 11 31 6 0 32 -19 58 -43z m-896 -168 c77
-62 237 -167 362 -239 119 -69 365 -190 385 -190 8 0 11 -9 7 -27 -3 -16 -15
-72 -27 -126 -27 -130 -29 -212 -5 -257 10 -19 53 -88 96 -152 l79 -118 -83
-70 c-159 -136 -240 -157 -364 -95 -140 70 -257 189 -503 511 -79 104 -166
212 -192 240 l-47 50 48 125 c27 68 73 200 102 292 l53 168 18 -36 c10 -19 42
-54 71 -76z m-17823 -2904 c106 -1023 238 -2303 293 -2845 l102 -985 122 -3
122 -3 5 -32 c3 -18 7 -124 8 -236 l3 -204 -30 -10 c-16 -5 -90 -31 -164 -58
l-134 -48 -93 26 c-78 22 -95 24 -109 13 -29 -24 -14 -54 33 -69 24 -7 41 -16
38 -19 -3 -3 -36 -18 -72 -33 l-66 -28 -62 16 c-34 9 -70 14 -79 10 -26 -10
-22 -56 5 -66 20 -7 13 -13 -60 -50 l-83 -42 -68 21 c-79 23 -101 19 -101 -20
0 -22 7 -30 37 -41 l36 -14 -64 -42 c-35 -23 -88 -62 -117 -87 -53 -45 -55
-46 -123 -46 l-69 0 0 -75 0 -75 -550 0 -550 0 0 89 0 90 -32 3 -33 3 1 285
c2 250 5 312 31 510 l29 225 70 3 70 3 528 2617 c290 1439 593 2941 673 3337
79 396 147 727 150 735 6 16 18 -93 303 -2855z m22135 355 c61 -12 111 -23
112 -24 3 -3 -177 -709 -181 -714 -2 -1 -6 26 -10 61 -14 143 -55 217 -120
217 -26 0 -40 -7 -60 -31 -14 -17 -26 -27 -26 -23 0 3 30 128 66 276 63 256
67 269 88 265 11 -3 71 -15 131 -27z m-484 -301 c6 -51 9 -117 7 -146 l-3 -53
41 0 41 0 -35 -152 c-19 -84 -35 -154 -36 -155 -1 -1 -46 7 -101 18 -55 10
-101 19 -103 19 -2 0 0 33 4 74 8 88 6 90 -110 108 -63 9 -76 15 -76 30 0 15
8 18 53 18 82 0 151 24 184 65 30 36 46 76 84 208 13 44 26 74 31 69 5 -5 13
-51 19 -103z m308 -270 c17 -50 34 -208 28 -276 l-5 -62 72 36 c80 40 176 103
206 135 11 12 34 62 52 111 32 89 32 90 50 68 56 -70 48 -261 -17 -393 -57
-116 -169 -211 -298 -250 -66 -20 -79 -20 -186 -10 -77 7 -172 8 -281 2 -91
-4 -166 -7 -167 -6 -4 3 37 359 42 364 2 3 84 -10 180 -28 97 -18 177 -31 179
-29 2 2 11 40 21 84 34 159 81 285 104 285 5 0 14 -14 20 -31z m-750 -1073
c-2 -2 -67 -22 -145 -45 -456 -133 -1223 -402 -2071 -726 l-61 -24 -6 77 c-3
42 -13 159 -22 260 -9 101 -13 186 -10 190 4 3 199 27 434 54 469 52 1466 169
1687 197 143 19 202 24 194 17z m-5839 -356 c28 -380 84 -711 187 -1097 30
-112 50 -173 59 -173 19 0 20 -5 38 -130 36 -249 92 -476 173 -698 281 -781
815 -1232 1525 -1291 62 -5 -454 -8 -1292 -9 -1350 -1 -1393 0 -1345 17 275
99 493 318 585 592 50 147 50 136 52 1669 1 789 3 1397 5 1350 1 -47 7 -150
13 -230z m7017 -1384 c71 -35 75 -39 208 -216 143 -190 339 -458 495 -678 65
-91 99 -131 109 -128 41 11 162 29 166 24 3 -3 41 -106 84 -229 l78 -224 -5
-212 -5 -213 -28 0 -29 0 0 -70 0 -70 -2947 2 c-1622 0 -2894 4 -2828 9 346
21 722 117 1155 296 172 70 678 320 1020 503 513 275 1532 849 2134 1203 l179
105 71 -33 c39 -18 104 -49 143 -69z m-13682 -141 c186 -47 363 -190 444 -356
96 -200 95 -396 -5 -597 -65 -133 -166 -233 -296 -296 -118 -56 -179 -70 -298
-70 -119 0 -180 14 -298 70 -130 63 -231 163 -296 296 -100 201 -101 397 -5
597 59 121 177 240 299 299 47 23 110 48 140 56 74 20 240 20 315 1z m17462
-706 c184 -111 331 -205 326 -209 -4 -4 -98 -85 -208 -180 -110 -95 -212 -184
-226 -197 l-27 -25 -256 118 c-141 65 -256 122 -256 127 0 17 294 567 303 567
5 0 160 -90 344 -201z m-28040 9 c-2 -18 -15 -120 -28 -225 l-23 -193 -388 0
-388 0 0 225 0 225 416 0 417 0 -6 -32z m3413 10 c0 -45 -21 -384 -26 -415
l-5 -33 -384 0 -384 0 -5 53 c-3 28 -8 134 -12 235 l-6 182 411 0 411 0 0 -22z
m22630 -43 c17 -9 30 -21 30 -28 0 -6 9 -104 20 -217 11 -113 20 -217 20 -232
l0 -28 -318 0 c-240 0 -322 3 -334 13 -16 13 -144 374 -135 383 7 7 622 122
660 123 15 1 41 -6 57 -14z m662 -320 c298 -146 546 -265 549 -265 4 0 26 37
49 83 24 45 44 83 45 85 1 1 111 -48 245 -110 l244 -113 74 -85 c41 -47 89
-101 106 -120 152 -172 148 -165 126 -185 -20 -19 -20 -19 8 -49 66 -73 104
-66 -378 -66 l-433 0 7 70 7 70 -67 0 c-65 0 -70 2 -123 44 -158 124 -494 286
-841 406 -69 24 -126 44 -127 45 -2 1 -43 417 -43 440 0 8 2 15 4 15 2 0 249
-119 548 -265z m-7345 -821 c-3 -3 -12 -4 -19 -1 -8 3 -5 6 6 6 11 1 17 -2 13
-5z"/>
<path d="M29004 37196 c-14 -37 0 -50 68 -62 71 -13 141 -41 187 -74 35 -24
64 -26 82 -4 18 22 3 42 -62 82 -99 60 -261 94 -275 58z"/>
<path d="M29103 36972 c-14 -9 -33 -56 -33 -82 0 -22 32 -43 53 -34 8 3 21 26
28 51 11 42 11 47 -6 59 -22 16 -26 17 -42 6z"/>
<path d="M29623 36933 c-7 -2 -13 -17 -13 -33 0 -26 5 -30 53 -44 36 -10 72
-32 111 -66 60 -52 74 -58 94 -38 21 21 13 46 -30 88 -63 60 -177 109 -215 93z"/>
<path d="M29403 36698 c-4 -7 -9 -59 -11 -115 -4 -86 -7 -103 -21 -105 -9 -1
-43 -2 -76 -2 -57 -1 -60 -2 -60 -26 0 -36 37 -51 118 -48 103 5 111 17 115
170 3 93 1 123 -10 129 -19 13 -46 11 -55 -3z"/>
<path d="M29656 36688 c-9 -13 -19 -38 -22 -55 -5 -25 -2 -33 14 -42 31 -16
50 -4 64 41 19 63 -24 105 -56 56z"/>
<path d="M29050 36448 c0 -63 89 -170 173 -209 51 -23 143 -25 193 -4 51 21
38 39 -35 47 -87 10 -175 54 -253 127 -36 33 -68 61 -72 61 -3 0 -6 -10 -6
-22z"/>
<path d="M29935 33505 c-59 -22 -112 -70 -142 -129 -35 -68 -38 -170 -5 -232
57 -111 172 -168 288 -144 239 50 289 363 78 486 -56 33 -158 42 -219 19z
m199 -98 c111 -85 97 -256 -26 -316 -76 -36 -146 -26 -207 32 -97 93 -76 237
44 302 48 26 143 16 189 -18z"/>
<path d="M16070 29021 c-77 -25 -126 -67 -115 -100 8 -27 47 -27 84 0 41 30
143 45 214 30 33 -7 61 -19 64 -27 10 -27 -34 -118 -121 -255 -85 -133 -104
-177 -92 -222 12 -50 117 -124 157 -112 34 11 24 52 -19 79 -55 35 -72 54 -65
74 3 9 44 76 90 149 90 142 107 176 123 249 23 101 -25 136 -190 140 -58 2
-116 0 -130 -5z"/>
<path d="M16612 28960 c-12 -5 -25 -16 -28 -25 -12 -29 14 -43 89 -47 86 -4
155 -34 235 -103 30 -25 60 -45 67 -45 15 0 45 27 45 40 0 27 -144 132 -222
162 -59 22 -154 32 -186 18z"/>
<path d="M16041 28776 c-7 -8 -11 -32 -9 -53 2 -31 7 -39 27 -41 29 -4 37 4
45 44 11 49 -35 84 -63 50z"/>
<path d="M16662 28677 c-21 -25 -24 -63 -7 -81 34 -33 65 -12 65 45 0 24 -5
39 -16 43 -23 9 -30 8 -42 -7z"/>
<path d="M16137 28150 c-41 -49 -48 -160 -11 -190 26 -22 64 -3 84 43 51 111
-6 227 -73 147z"/>
<path d="M35212 18884 c-11 -20 -4 -54 12 -55 14 -1 63 -8 102 -14 17 -3 57
-21 89 -41 71 -42 100 -42 100 1 0 25 -8 35 -55 63 -98 58 -228 82 -248 46z"/>
<path d="M35245 18626 c-24 -36 -16 -70 17 -74 32 -4 61 33 56 70 -5 34 -52
37 -73 4z"/>
<path d="M35592 18497 c-6 -7 -18 -71 -27 -142 -25 -203 -32 -215 -116 -196
-49 11 -79 0 -79 -28 0 -31 27 -44 105 -49 73 -5 75 -4 104 27 35 37 36 42 60
229 15 124 16 146 4 158 -18 17 -37 18 -51 1z"/>
<path d="M35824 18352 c-16 -11 -34 -48 -34 -71 0 -30 48 -41 67 -15 39 53 14
118 -33 86z"/>
<path d="M10435 38160 c-353 -36 -675 -231 -870 -524 -138 -211 -197 -401
-199 -651 -2 -263 59 -467 204 -683 414 -618 1300 -701 1830 -171 474 473 463
1244 -23 1706 -251 238 -601 358 -942 323z m386 -103 c131 -34 228 -76 335
-145 323 -210 514 -556 514 -935 0 -307 -111 -577 -326 -792 -397 -397 -1018
-439 -1464 -99 -74 56 -206 196 -253 267 -112 169 -175 365 -184 568 -15 326
96 611 328 841 167 167 361 268 601 314 113 21 329 12 449 -19z"/>
<path d="M10032 37228 c-7 -7 -12 -40 -12 -78 0 -68 10 -90 42 -90 25 0 38 31
38 90 0 28 -5 60 -10 71 -12 21 -40 25 -58 7z"/>
<path d="M11021 37226 c-19 -23 -10 -146 12 -160 34 -21 52 4 55 78 3 71 -7
96 -38 96 -10 0 -23 -6 -29 -14z"/>
<path d="M10110 36746 c0 -58 19 -139 47 -196 35 -71 132 -169 205 -204 165
-80 363 -49 497 79 88 84 141 201 141 312 l0 43 -445 0 -445 0 0 -34z m805
-73 c-16 -89 -85 -187 -165 -238 -138 -87 -321 -68 -444 45 -47 43 -101 138
-112 198 l-6 32 367 0 367 0 -7 -37z"/>
<path d="M20834 37328 c-19 -29 -24 -46 -17 -56 6 -11 -14 -58 -76 -171 l-86
-156 0 -85 c0 -75 4 -92 30 -144 80 -158 329 -351 657 -510 70 -33 128 -63
128 -66 0 -3 -58 -97 -129 -210 l-129 -205 26 -22 c15 -13 30 -22 34 -20 4 1
79 117 166 257 l159 255 69 -1 c72 -2 168 -31 269 -81 71 -36 255 -166 255
-181 0 -6 -70 -152 -156 -324 -120 -240 -153 -313 -142 -320 34 -23 52 -30 56
-22 2 5 115 232 251 504 192 385 251 496 267 498 11 2 31 22 46 46 l26 44 -21
20 c-12 10 -125 81 -252 157 -923 555 -1354 812 -1378 822 -26 12 -28 11 -53
-29z"/>
<path d="M17660 37295 c0 -40 4 -55 14 -55 10 0 14 -36 18 -175 5 -169 6 -177
34 -232 49 -96 156 -155 342 -189 95 -16 420 -18 562 -3 56 6 104 8 107 5 5
-5 91 -784 93 -834 0 -9 12 -12 38 -10 36 3 37 4 34 38 -2 19 -23 228 -48 464
-35 337 -42 432 -32 443 20 25 87 54 157 69 79 16 202 18 343 4 130 -13 148
-17 148 -33 -1 -6 34 -211 77 -454 l77 -443 32 0 c18 0 35 4 38 8 2 4 -31 210
-75 457 -76 431 -92 552 -103 768 -5 81 -3 97 9 97 11 0 15 13 15 49 0 46 -2
50 -27 55 -33 7 -1183 26 -1580 26 l-273 0 0 -55z"/>
<path d="M14015 34176 c-114 -19 -198 -43 -295 -83 -419 -173 -726 -559 -801
-1008 -17 -103 -15 -334 4 -440 99 -552 546 -987 1099 -1069 418 -62 825 71
1124 369 196 196 323 436 369 702 20 114 20 344 0 456 -92 524 -489 937 -1015
1058 -112 26 -372 34 -485 15z m447 -87 c728 -144 1166 -900 931 -1607 -141
-424 -520 -750 -962 -827 -108 -19 -315 -19 -424 0 -498 87 -895 473 -1003
975 -8 41 -18 132 -21 201 -16 351 123 691 384 940 295 282 694 397 1095 318z"/>
<path d="M13649 33441 c-48 -27 -96 -83 -128 -151 -22 -47 -26 -69 -26 -150 1
-147 55 -278 194 -465 120 -162 502 -525 552 -525 22 0 232 184 354 311 253
263 386 499 386 686 0 89 -11 133 -53 203 -98 163 -307 130 -602 -95 l-82 -62
-54 49 c-76 68 -187 143 -267 180 -56 27 -82 33 -153 35 -70 3 -91 0 -121 -16z
m195 -71 c81 -26 217 -115 320 -211 69 -64 78 -70 95 -58 10 8 55 44 100 80
154 125 337 210 417 194 114 -21 163 -201 102 -373 -67 -189 -270 -444 -539
-678 l-99 -86 -88 73 c-135 114 -319 304 -404 416 -188 251 -229 460 -116 597
56 68 105 79 212 46z"/>
<path d="M41336 30684 c-178 -43 -328 -195 -371 -375 -50 -213 38 -434 219
-551 84 -54 169 -78 275 -78 150 0 269 50 369 154 97 101 142 212 142 350 -1
100 -12 153 -53 236 -102 208 -349 320 -581 264z m309 -104 c130 -62 221 -184
247 -330 30 -175 -82 -382 -246 -455 -133 -59 -249 -56 -383 10 -186 92 -276
308 -214 513 38 128 142 235 270 280 55 19 82 22 161 19 84 -3 103 -7 165 -37z"/>
<path d="M13227 29838 c-119 -277 -311 -723 -428 -993 -300 -697 -297 -690
-294 -693 1 -2 313 33 692 78 l689 80 288 -125 c159 -68 291 -126 292 -128 4
-4 -145 -207 -151 -207 -2 0 -15 11 -29 25 -52 52 -163 24 -287 -71 -141 -108
-214 -251 -189 -370 l11 -54 -162 -285 c-89 -157 -159 -288 -157 -291 3 -2 19
-9 36 -14 l32 -9 151 267 c84 147 154 269 156 271 2 3 10 -2 18 -10 12 -12 8
-22 -32 -74 -25 -33 -54 -73 -64 -90 -23 -37 -25 -114 -4 -155 14 -28 131
-123 206 -169 44 -27 113 -28 156 -1 18 10 81 84 140 164 111 149 158 198 77
80 -59 -88 -81 -131 -147 -299 -74 -190 -72 -179 -42 -193 39 -18 52 -15 60
16 12 49 96 255 136 337 53 106 80 139 135 166 63 32 165 143 204 222 34 70
52 170 43 247 -5 44 -3 48 82 160 47 63 90 119 94 123 5 5 52 -10 106 -33 54
-23 101 -38 106 -33 4 4 37 76 72 158 36 83 122 282 192 444 69 161 123 297
118 302 -5 5 -288 129 -630 276 l-621 268 -135 180 c-73 99 -254 341 -401 538
-146 197 -272 367 -279 377 -6 11 -14 20 -18 20 -3 0 -103 -226 -222 -502z
m1053 -2090 c67 -104 135 -248 149 -316 9 -44 8 -58 -4 -83 -34 -64 -143 -99
-255 -80 -83 13 -194 68 -245 121 -37 38 -40 45 -40 98 1 74 34 133 122 219
61 59 167 123 204 123 11 0 37 -31 69 -82z m400 -319 c-36 -134 -118 -202
-267 -223 -24 -4 -43 -4 -43 -1 0 2 18 14 39 25 47 23 86 71 98 120 8 30 20
41 93 82 46 26 86 46 88 44 2 -2 -2 -24 -8 -47z"/>
<path d="M44685 29999 c-177 -18 -342 -67 -510 -150 -561 -276 -895 -870 -837
-1489 45 -471 290 -878 685 -1134 506 -329 1154 -325 1661 11 132 87 327 281
414 412 320 479 344 1103 61 1594 -100 173 -278 372 -429 478 -311 220 -675
317 -1045 278z m397 -88 c453 -78 843 -370 1051 -786 104 -209 142 -377 142
-630 0 -200 -14 -290 -67 -448 -142 -426 -488 -774 -913 -915 -171 -57 -241
-67 -455 -67 -175 1 -207 4 -306 27 -272 64 -507 193 -698 384 -225 224 -363
493 -413 809 -23 144 -13 383 20 526 64 268 186 491 380 688 223 228 510 374
825 420 109 16 314 12 434 -8z"/>
<path d="M44693 29481 l-43 -20 0 -871 0 -871 438 3 c425 3 438 4 484 25 66
30 141 104 169 166 23 50 24 62 27 335 4 317 -2 356 -61 434 -41 53 -106 104
-155 119 -20 6 -125 14 -232 18 l-195 6 -8 84 c-24 268 -104 480 -210 556 -55
39 -149 46 -214 16z m140 -65 c112 -48 195 -271 214 -573 l6 -103 215 0 c141
0 229 -4 256 -12 41 -13 146 -103 146 -126 0 -8 -59 -12 -217 -14 l-218 -3 0
-30 0 -30 228 -3 227 -2 0 -95 0 -95 -214 0 c-118 0 -221 -3 -230 -6 -19 -7
-21 -45 -4 -62 9 -9 74 -12 230 -12 l218 0 0 -90 0 -90 -219 0 c-235 0 -246
-2 -239 -52 l3 -23 227 -5 227 -5 -18 -40 c-23 -51 -98 -118 -149 -133 -27 -8
-156 -12 -416 -12 l-376 0 0 805 0 806 23 9 c31 12 43 12 80 -4z"/>
<path d="M44200 28305 l0 -585 165 0 165 0 0 585 0 585 -165 0 -165 0 0 -585z
m250 5 l0 -510 -85 0 -85 0 0 510 0 510 85 0 85 0 0 -510z"/>
<path d="M20785 29309 c-309 -47 -548 -262 -626 -562 -26 -100 -26 -268 1
-371 67 -261 285 -478 545 -542 94 -24 278 -24 365 -1 117 31 240 99 329 183
171 160 251 358 238 589 -15 281 -185 529 -441 645 -119 54 -288 78 -411 59z
m261 -89 c130 -33 217 -82 315 -180 138 -137 200 -284 200 -475 0 -57 -7 -126
-16 -160 -20 -78 -85 -210 -127 -259 l-34 -39 -28 58 c-41 82 -128 166 -220
210 l-75 36 34 44 c40 53 61 133 51 197 -10 68 -62 147 -120 183 -100 61 -253
41 -327 -43 -88 -99 -93 -247 -14 -340 l32 -37 -79 -37 c-92 -43 -188 -132
-226 -211 -13 -26 -26 -47 -30 -47 -12 0 -90 122 -115 180 -39 90 -52 158 -51
275 1 90 5 124 27 190 60 181 180 320 352 406 141 70 300 87 451 49z m-56
-454 c82 -54 105 -183 46 -260 -67 -89 -191 -102 -270 -28 -31 30 -65 95 -66
127 0 38 21 95 47 126 60 71 165 86 243 35z m52 -436 c119 -36 227 -136 263
-240 l16 -45 -28 -22 c-51 -41 -161 -93 -239 -113 -191 -49 -440 1 -571 115
l-38 33 28 56 c50 103 137 178 252 218 72 25 233 24 317 -2z"/>
<path d="M21860 28740 c36 -22 193 -118 350 -213 l285 -174 3 -806 2 -807
3670 0 3670 0 0 1020 0 1020 -4022 0 -4023 0 65 -40z m7910 -980 l0 -950
-3595 0 -3595 0 -2 792 -3 792 -247 151 c-135 82 -250 154 -254 158 -4 4 1726
7 3844 7 l3852 0 0 -950z"/>
<path d="M23282 28118 c-16 -16 -15 -43 2 -57 10 -8 796 -10 2982 -9 l2969 3
3 29 c2 16 -2 32 -10 37 -7 5 -1345 9 -2973 9 -2290 0 -2964 -3 -2973 -12z"/>
<path d="M23282 27498 c-7 -7 -12 -19 -12 -28 0 -9 5 -21 12 -28 17 -17 3249
-17 3266 0 16 16 15 33 -4 52 -14 14 -176 16 -1633 16 -1244 0 -1620 -3 -1629
-12z"/>
<path d="M29700 25889 c-249 -34 -476 -202 -579 -431 -50 -110 -65 -181 -65
-313 0 -145 16 -212 81 -345 39 -80 61 -109 137 -186 77 -76 106 -98 186 -137
133 -65 200 -81 345 -81 140 0 210 16 330 74 191 92 329 257 390 465 35 118
38 280 6 398 -69 262 -278 471 -535 537 -90 23 -213 31 -296 19z m245 -84
c143 -30 292 -123 385 -240 92 -116 138 -236 146 -385 7 -117 -11 -214 -61
-319 -35 -72 -100 -171 -113 -171 -4 1 -18 24 -31 53 -43 92 -160 193 -273
236 l-28 10 27 28 c58 63 80 171 51 264 -29 97 -134 169 -247 169 -148 0 -256
-110 -255 -260 0 -68 14 -105 61 -168 l24 -32 -26 -10 c-15 -6 -30 -10 -34
-10 -18 0 -129 -80 -169 -121 -23 -24 -54 -68 -70 -96 -15 -29 -30 -53 -34
-53 -12 0 -77 97 -107 160 -69 146 -81 350 -28 498 115 327 448 518 782 447z
m-70 -444 c143 -65 149 -263 11 -331 -95 -46 -200 -11 -247 82 -37 72 -20 157
42 214 59 55 125 67 194 35z m128 -468 c37 -18 92 -55 122 -84 53 -50 105
-135 105 -171 0 -38 -154 -125 -273 -153 -89 -21 -228 -19 -321 5 -82 21 -190
73 -243 118 l-33 27 25 52 c28 61 102 144 160 181 76 49 138 62 270 59 111 -2
125 -4 188 -34z"/>
<path d="M13887 25413 c-3 -5 -17 -73 -32 -153 -91 -494 -257 -1157 -366
-1465 l-31 -89 22 -18 c39 -32 55 -10 104 140 111 341 220 774 316 1251 51
254 60 313 50 326 -13 16 -55 21 -63 8z"/>
<path d="M21695 24561 c-8 -26 3 -48 28 -55 29 -8 5885 -7 5914 0 27 7 39 40
23 59 -11 13 -399 15 -2986 15 -2889 0 -2973 -1 -2979 -19z"/>
<path d="M18007 24213 c-4 -3 -7 -14 -7 -24 0 -9 149 -302 332 -650 l331 -632
-25 -21 c-14 -12 -332 -291 -707 -620 l-681 -599 108 -69 c59 -39 111 -74 116
-78 8 -8 -208 -294 -255 -337 -27 -24 -163 -107 -284 -174 -69 -38 -88 -44
-140 -44 l-60 0 0 -30 0 -30 300 -102 c165 -56 430 -145 589 -199 l289 -97 18
22 c29 35 10 54 -83 85 -46 16 -87 32 -91 36 -12 10 13 310 28 347 13 31 170
193 187 193 4 0 31 -14 59 -32 l52 -31 116 37 c132 43 161 59 161 85 0 44 -24
45 -148 3 l-118 -39 -65 42 c-222 147 -487 321 -504 330 -53 30 -135 89 -133
96 2 4 293 263 648 575 355 311 662 582 683 601 l38 34 -341 652 c-188 359
-347 658 -352 665 -11 13 -50 17 -61 5z m-281 -2857 c93 -61 171 -112 174
-114 3 -2 -25 -30 -61 -62 -36 -32 -82 -83 -102 -112 -32 -47 -37 -64 -46
-150 -6 -54 -11 -129 -11 -168 0 -55 -3 -70 -15 -70 -13 0 -705 237 -712 244
-2 1 58 38 133 82 76 43 158 98 183 121 25 22 98 109 161 192 63 82 118 149
121 148 3 -1 82 -51 175 -111z"/>
<path d="M21695 23941 c-8 -26 3 -48 28 -55 29 -8 5885 -7 5914 0 25 7 37 32
27 58 -6 15 -233 16 -2984 16 -2895 0 -2979 -1 -2985 -19z"/>
<path d="M21718 23343 c-20 -5 -31 -33 -22 -57 6 -15 233 -16 2984 -16 2751 0
2978 1 2984 16 10 26 -2 51 -27 58 -25 7 -5893 6 -5919 -1z"/>
<path d="M5237 23195 c-272 -52 -496 -227 -612 -479 -57 -122 -69 -184 -69
-346 0 -162 12 -224 70 -348 245 -532 948 -655 1358 -239 157 160 236 356 236
587 0 385 -236 698 -607 805 -112 33 -265 41 -376 20z m378 -98 c389 -128 612
-537 505 -926 -97 -348 -416 -578 -775 -558 -117 6 -205 31 -320 90 -102 53
-244 190 -299 288 -167 303 -124 654 111 900 113 118 238 191 388 225 99 22
292 13 390 -19z"/>
<path d="M5357 22704 c-4 -4 -7 -76 -7 -160 l0 -153 -157 -3 -158 -3 0 -30 0
-30 155 -5 155 -5 3 -151 c3 -162 9 -183 51 -169 19 6 21 16 23 163 l3 157
157 3 c147 2 157 4 163 23 14 42 -7 48 -169 51 l-151 3 -5 155 -5 155 -25 3
c-14 2 -29 0 -33 -4z"/>
<path d="M15142 22918 c-7 -7 -12 -19 -12 -28 0 -34 22 -40 152 -40 116 0 128
2 138 19 13 25 13 27 -6 45 -12 13 -40 16 -138 16 -81 0 -126 -4 -134 -12z"/>
<path d="M17163 22910 c-108 -65 -63 -230 63 -230 41 0 51 5 85 39 32 32 39
46 39 77 0 51 -18 83 -59 111 -42 28 -86 29 -128 3z m95 -72 c7 -7 12 -21 12
-33 0 -12 -5 -26 -12 -33 -7 -7 -21 -12 -33 -12 -12 0 -26 5 -33 12 -7 7 -12
21 -12 33 0 12 5 26 12 33 7 7 21 12 33 12 12 0 26 -5 33 -12z"/>
<path d="M21718 22723 c-20 -5 -31 -33 -22 -57 6 -15 79 -16 884 -16 848 0
879 1 885 19 8 26 -3 48 -28 55 -25 7 -1693 6 -1719 -1z"/>
<path d="M17061 22214 c-17 -14 -36 -42 -42 -63 -25 -83 53 -171 139 -157 73
11 122 93 99 164 -26 78 -134 109 -196 56z m109 -64 c11 -11 20 -25 20 -32 0
-17 -31 -48 -48 -48 -20 0 -52 29 -52 47 0 15 35 53 50 53 6 0 19 -9 30 -20z"/>
<path d="M15210 22146 c-6 -8 -10 -25 -8 -38 3 -23 4 -23 143 -23 139 0 140 0
143 23 7 46 -11 52 -143 52 -95 0 -125 -3 -135 -14z"/>
<path d="M14880 20871 c-245 -93 -453 -174 -463 -181 -24 -14 -19 -63 6 -68
17 -4 920 332 945 351 7 6 12 22 10 36 -2 19 -9 27 -28 28 -14 2 -225 -74
-470 -166z"/>
<path d="M20792 20610 c-307 -42 -555 -262 -632 -560 -27 -102 -27 -270 -1
-372 67 -262 279 -474 541 -544 89 -24 282 -24 370 -1 117 31 240 99 329 183
171 161 251 359 238 589 -14 238 -133 449 -330 584 -141 96 -345 144 -515 121z
m253 -90 c133 -34 218 -83 316 -180 138 -137 200 -284 200 -475 0 -57 -7 -126
-16 -160 -20 -78 -85 -210 -128 -259 l-33 -40 -23 48 c-51 105 -165 208 -262
237 -21 7 -39 14 -39 15 0 2 15 24 34 48 104 136 50 335 -109 402 -54 22 -151
18 -210 -10 -148 -68 -194 -273 -90 -393 l32 -37 -81 -40 c-93 -45 -186 -132
-224 -209 -13 -26 -26 -47 -30 -47 -15 1 -73 90 -106 161 -48 103 -70 221 -62
326 19 247 160 455 383 564 143 70 299 87 448 49z m-59 -451 c19 -11 46 -41
60 -65 22 -38 26 -54 22 -103 -12 -164 -207 -231 -315 -108 -55 62 -65 136
-28 207 47 91 173 124 261 69z m56 -439 c117 -36 226 -136 264 -241 15 -44 15
-44 -13 -67 -50 -41 -181 -100 -259 -118 -111 -24 -263 -16 -364 21 -82 30
-175 82 -205 115 -18 20 -18 22 8 76 50 101 137 176 252 216 72 25 233 24 317
-2z"/>
<path d="M21941 20187 c47 -28 208 -126 357 -217 l272 -165 0 -587 0 -588
3670 0 3670 0 0 805 0 805 -4027 0 -4028 0 86 -53z m7899 -752 l0 -725 -3600
0 -3600 0 -2 572 -3 572 -170 104 c-93 57 -206 126 -250 153 l-80 49 3853 0
3852 0 0 -725z"/>
<path d="M23232 19518 c-16 -16 -15 -43 2 -57 10 -8 796 -10 2982 -9 l2969 3
3 29 c2 16 -2 32 -10 37 -7 5 -1345 9 -2973 9 -2290 0 -2964 -3 -2973 -12z"/>
<path d="M44655 19863 c-99 -36 -163 -103 -191 -201 -40 -135 25 -274 159
-344 33 -17 59 -22 122 -22 88 0 134 17 199 75 115 100 122 291 17 412 -71 80
-207 115 -306 80z m204 -96 c22 -15 53 -46 68 -69 24 -36 28 -52 28 -113 0
-61 -4 -77 -28 -113 -15 -23 -46 -54 -69 -69 -36 -24 -52 -28 -113 -28 -61 0
-77 4 -113 28 -144 95 -133 299 21 377 60 30 149 25 206 -13z"/>
<path d="M42292 19500 c-510 -65 -939 -418 -1096 -905 -85 -263 -81 -584 10
-837 140 -388 440 -684 827 -813 251 -84 557 -87 809 -9 119 37 289 124 389
198 159 120 312 302 398 474 45 89 97 251 116 356 22 127 20 350 -4 474 -103
530 -518 947 -1044 1047 -102 19 -308 27 -405 15z m358 -85 c504 -82 906 -472
1016 -985 25 -118 26 -353 1 -470 -57 -268 -177 -484 -371 -667 -416 -394
-1041 -451 -1520 -140 -169 110 -346 308 -435 485 -145 288 -169 640 -65 950
145 433 541 765 990 831 97 14 283 12 384 -4z"/>
<path d="M41880 18757 c-88 -46 -160 -182 -160 -301 1 -141 86 -328 234 -511
99 -122 323 -337 474 -454 l42 -33 96 78 c118 96 308 284 393 389 124 154 216
320 241 436 17 77 9 202 -17 260 -26 58 -79 118 -120 135 -108 45 -292 -21
-505 -181 l-83 -62 -63 53 c-88 75 -170 129 -259 172 -62 29 -90 36 -152 39
-65 3 -83 0 -121 -20z m218 -79 c72 -27 209 -121 302 -206 l75 -69 55 49 c70
63 230 170 300 201 122 54 197 52 245 -4 112 -134 68 -348 -124 -607 -65 -88
-345 -376 -433 -446 l-48 -38 -72 58 c-102 82 -276 252 -357 348 -219 260
-289 467 -211 623 35 70 55 90 107 108 43 16 83 11 161 -17z"/>
<path d="M29707 17280 c-264 -32 -495 -209 -604 -465 -61 -142 -69 -356 -19
-510 62 -195 206 -360 391 -450 112 -54 183 -69 325 -69 142 0 213 15 325 69
157 77 274 193 350 350 60 125 79 218 72 364 -9 209 -70 344 -222 496 -68 68
-110 101 -171 133 -134 70 -296 99 -447 82z m298 -104 c115 -37 196 -89 284
-182 131 -138 185 -277 184 -469 0 -129 -28 -231 -90 -331 -42 -68 -81 -119
-87 -113 -2 2 -16 29 -31 58 -40 80 -125 160 -218 206 l-78 38 25 26 c82 86
88 234 13 333 -123 162 -382 119 -454 -75 -28 -75 -11 -172 41 -240 l33 -43
-78 -37 c-92 -43 -172 -118 -221 -204 l-32 -56 -32 37 c-42 49 -98 164 -120
246 -22 85 -22 235 -1 320 54 209 208 389 400 467 148 60 313 67 462 19z
m-150 -417 c86 -24 148 -133 125 -220 -13 -48 -63 -107 -107 -125 -69 -29
-154 -12 -205 42 -92 98 -48 266 80 304 38 12 61 11 107 -1z m97 -459 c75 -23
142 -65 193 -122 42 -46 90 -142 81 -163 -9 -24 -113 -85 -200 -118 -113 -42
-275 -50 -389 -18 -88 24 -196 76 -246 118 l-33 28 16 39 c43 104 143 195 256
233 87 30 230 31 322 3z"/>
<path d="M6399 16967 c-100 -28 -181 -97 -223 -186 -30 -66 -30 -207 1 -273
30 -66 96 -133 162 -165 48 -24 68 -28 141 -28 71 0 94 4 142 27 66 31 128 91
160 156 17 35 24 69 26 134 4 77 1 93 -24 148 -65 145 -237 229 -385 187z
m197 -95 c157 -80 188 -287 62 -411 -48 -48 -85 -63 -158 -69 -195 -14 -328
176 -250 356 26 60 82 114 144 136 54 21 150 15 202 -12z"/>
<path d="M21576 16004 c-20 -19 -20 -38 -2 -53 10 -8 797 -10 2987 -9 l2974 3
3 23 c8 56 230 52 -2984 52 -2680 0 -2964 -1 -2978 -16z"/>
<path d="M5586 15510 c-167 -21 -300 -62 -456 -140 -366 -184 -634 -534 -722
-943 -31 -146 -31 -398 0 -544 117 -547 552 -971 1096 -1070 122 -22 360 -22
482 0 555 101 1000 546 1101 1101 22 122 22 360 0 482 -99 544 -528 984 -1069
1094 -115 24 -326 33 -432 20z m364 -85 c251 -41 487 -159 676 -337 365 -346
496 -860 339 -1335 -61 -184 -152 -336 -287 -479 -511 -539 -1355 -539 -1866
0 -134 143 -225 294 -287 479 -178 532 18 1123 480 1452 148 106 349 189 526
219 114 19 304 19 419 1z"/>
<path d="M4920 14130 l0 -530 820 0 820 0 0 530 0 530 -820 0 -820 0 0 -530z
m1568 -2 l-3 -453 -742 -3 -743 -2 0 455 0 455 745 0 745 0 -2 -452z"/>
<path d="M5540 14130 c0 -171 4 -310 8 -308 28 11 430 303 426 309 -3 6 -247
181 -406 291 l-28 19 0 -311z m190 83 c61 -42 110 -80 110 -84 0 -4 -46 -40
-102 -80 -57 -40 -109 -77 -115 -82 -10 -7 -13 25 -13 157 0 91 2 166 5 166 3
0 55 -35 115 -77z"/>
<path d="M21576 15384 c-20 -19 -20 -38 -2 -53 10 -8 797 -10 2987 -9 l2974 3
3 23 c8 56 230 52 -2984 52 -2680 0 -2964 -1 -2978 -16z"/>
<path d="M21576 14764 c-20 -19 -20 -38 -2 -53 10 -8 797 -10 2987 -9 l2974 3
3 23 c8 56 230 52 -2984 52 -2680 0 -2964 -1 -2978 -16z"/>
<path d="M21576 14144 c-20 -19 -20 -38 -2 -53 10 -8 519 -10 1921 -9 1805 3
1908 4 1919 21 8 12 8 22 0 35 -11 16 -114 17 -1917 20 -1722 2 -1907 1 -1921
-14z"/>
</g>
</svg>
